<mxfile host="app.diagrams.net" modified="2024-04-01T20:26:56.097Z" agent="Mozilla/5.0 (Windows NT 10.0; Win64; x64) AppleWebKit/537.36 (KHTML, like Gecko) Chrome/123.0.0.0 Safari/537.36" version="24.2.1" etag="wFv8hR1ID6F6r-9QKZWU" type="github">
  <diagram name="Página-1" id="Vd55LXbhxWp7ikFCze5P">
    <mxGraphModel>
      <root>
        <mxCell id="0" />
        <mxCell id="1" parent="0" />
        <UserObject label="" mermaidData="{&#xa;  &quot;data&quot;: &quot;%% Prompt: diagrama de prceso disciplinario  (Gantt)\ngantt\n    title Diagrama de Proceso Disciplinario\n\n    section Inicio\n    Revisión del caso: 2022-01-01, 7d\n\n    section Investigación\n    Entrevistas: 2022-01-08, 5d\n    Recopilación de evidencia: 2022-01-13, 3d\n\n    section Resolución\n    Evaluación final: 2022-01-16, 2d&quot;,&#xa;  &quot;config&quot;: {&#xa;    &quot;theme&quot;: &quot;neutral&quot;,&#xa;    &quot;arrowMarkerAbsolute&quot;: false,&#xa;    &quot;flowchart&quot;: {&#xa;      &quot;htmlLabels&quot;: false&#xa;    },&#xa;    &quot;sequence&quot;: {&#xa;      &quot;diagramMarginX&quot;: 50,&#xa;      &quot;diagramMarginY&quot;: 10,&#xa;      &quot;actorMargin&quot;: 50,&#xa;      &quot;width&quot;: 150,&#xa;      &quot;height&quot;: 65,&#xa;      &quot;boxMargin&quot;: 10,&#xa;      &quot;boxTextMargin&quot;: 5,&#xa;      &quot;noteMargin&quot;: 10,&#xa;      &quot;messageMargin&quot;: 35,&#xa;      &quot;mirrorActors&quot;: true,&#xa;      &quot;bottomMarginAdj&quot;: 1,&#xa;      &quot;useMaxWidth&quot;: true,&#xa;      &quot;rightAngles&quot;: false,&#xa;      &quot;showSequenceNumbers&quot;: false&#xa;    },&#xa;    &quot;gantt&quot;: {&#xa;      &quot;titleTopMargin&quot;: 25,&#xa;      &quot;barHeight&quot;: 20,&#xa;      &quot;barGap&quot;: 4,&#xa;      &quot;topPadding&quot;: 50,&#xa;      &quot;leftPadding&quot;: 75,&#xa;      &quot;gridLineStartPadding&quot;: 35,&#xa;      &quot;fontSize&quot;: 11,&#xa;      &quot;fontFamily&quot;: &quot;\&quot;Open-Sans\&quot;, \&quot;sans-serif\&quot;&quot;,&#xa;      &quot;numberSectionStyles&quot;: 4,&#xa;      &quot;axisFormat&quot;: &quot;%Y-%m-%d&quot;&#xa;    }&#xa;  }&#xa;}" id="2">
          <mxCell style="shape=image;noLabel=1;verticalAlign=top;imageAspect=1;image=data:image/svg+xml,PHN2ZyBhcmlhLWxhYmVsbGVkYnk9ImNoYXJ0LXRpdGxlLWdlTWVybWFpZE91dHB1dC0xNzEyMDAyODM5NDkxIiBhcmlhLXJvbGVkZXNjcmlwdGlvbj0iZ2FudHQiIHJvbGU9ImdyYXBoaWNzLWRvY3VtZW50IGRvY3VtZW50IiBzdHlsZT0ibWF4LXdpZHRoOiAxMzY2cHg7IiB2aWV3Qm94PSIwIDAgMTM2NiAxOTYiIHhtbG5zPSJodHRwOi8vd3d3LnczLm9yZy8yMDAwL3N2ZyIgd2lkdGg9IjEwMCUiIGlkPSJnZU1lcm1haWRPdXRwdXQtMTcxMjAwMjgzOTQ5MSI+PHRpdGxlIGlkPSJjaGFydC10aXRsZS1nZU1lcm1haWRPdXRwdXQtMTcxMjAwMjgzOTQ5MSI+RGlhZ3JhbWEgZGUgUHJvY2VzbyBEaXNjaXBsaW5hcmlvPC90aXRsZT48c3R5bGU+I2dlTWVybWFpZE91dHB1dC0xNzEyMDAyODM5NDkxe2ZvbnQtZmFtaWx5OiJ0cmVidWNoZXQgbXMiLHZlcmRhbmEsYXJpYWwsc2Fucy1zZXJpZjtmb250LXNpemU6MTZweDtmaWxsOiMwMDAwMDA7fSNnZU1lcm1haWRPdXRwdXQtMTcxMjAwMjgzOTQ5MSAuZXJyb3ItaWNvbntmaWxsOiM1NTIyMjI7fSNnZU1lcm1haWRPdXRwdXQtMTcxMjAwMjgzOTQ5MSAuZXJyb3ItdGV4dHtmaWxsOiM1NTIyMjI7c3Ryb2tlOiM1NTIyMjI7fSNnZU1lcm1haWRPdXRwdXQtMTcxMjAwMjgzOTQ5MSAuZWRnZS10aGlja25lc3Mtbm9ybWFse3N0cm9rZS13aWR0aDoycHg7fSNnZU1lcm1haWRPdXRwdXQtMTcxMjAwMjgzOTQ5MSAuZWRnZS10aGlja25lc3MtdGhpY2t7c3Ryb2tlLXdpZHRoOjMuNXB4O30jZ2VNZXJtYWlkT3V0cHV0LTE3MTIwMDI4Mzk0OTEgLmVkZ2UtcGF0dGVybi1zb2xpZHtzdHJva2UtZGFzaGFycmF5OjA7fSNnZU1lcm1haWRPdXRwdXQtMTcxMjAwMjgzOTQ5MSAuZWRnZS1wYXR0ZXJuLWRhc2hlZHtzdHJva2UtZGFzaGFycmF5OjM7fSNnZU1lcm1haWRPdXRwdXQtMTcxMjAwMjgzOTQ5MSAuZWRnZS1wYXR0ZXJuLWRvdHRlZHtzdHJva2UtZGFzaGFycmF5OjI7fSNnZU1lcm1haWRPdXRwdXQtMTcxMjAwMjgzOTQ5MSAubWFya2Vye2ZpbGw6IzY2NjtzdHJva2U6IzY2Njt9I2dlTWVybWFpZE91dHB1dC0xNzEyMDAyODM5NDkxIC5tYXJrZXIuY3Jvc3N7c3Ryb2tlOiM2NjY7fSNnZU1lcm1haWRPdXRwdXQtMTcxMjAwMjgzOTQ5MSBzdmd7Zm9udC1mYW1pbHk6InRyZWJ1Y2hldCBtcyIsdmVyZGFuYSxhcmlhbCxzYW5zLXNlcmlmO2ZvbnQtc2l6ZToxNnB4O30jZ2VNZXJtYWlkT3V0cHV0LTE3MTIwMDI4Mzk0OTEgLm1lcm1haWQtbWFpbi1mb250e2ZvbnQtZmFtaWx5OiJ0cmVidWNoZXQgbXMiLHZlcmRhbmEsYXJpYWwsc2Fucy1zZXJpZjtmb250LWZhbWlseTp2YXIoLS1tZXJtYWlkLWZvbnQtZmFtaWx5KTt9I2dlTWVybWFpZE91dHB1dC0xNzEyMDAyODM5NDkxIC5leGNsdWRlLXJhbmdle2ZpbGw6I2VlZWVlZTt9I2dlTWVybWFpZE91dHB1dC0xNzEyMDAyODM5NDkxIC5zZWN0aW9ue3N0cm9rZTpub25lO29wYWNpdHk6MC4yO30jZ2VNZXJtYWlkT3V0cHV0LTE3MTIwMDI4Mzk0OTEgLnNlY3Rpb24we2ZpbGw6aHNsKDAsIDAlLCA3My45MjE1Njg2Mjc1JSk7fSNnZU1lcm1haWRPdXRwdXQtMTcxMjAwMjgzOTQ5MSAuc2VjdGlvbjJ7ZmlsbDpoc2woMCwgMCUsIDczLjkyMTU2ODYyNzUlKTt9I2dlTWVybWFpZE91dHB1dC0xNzEyMDAyODM5NDkxIC5zZWN0aW9uMSwjZ2VNZXJtYWlkT3V0cHV0LTE3MTIwMDI4Mzk0OTEgLnNlY3Rpb24ze2ZpbGw6d2hpdGU7b3BhY2l0eTowLjI7fSNnZU1lcm1haWRPdXRwdXQtMTcxMjAwMjgzOTQ5MSAuc2VjdGlvblRpdGxlMHtmaWxsOiMzMzM7fSNnZU1lcm1haWRPdXRwdXQtMTcxMjAwMjgzOTQ5MSAuc2VjdGlvblRpdGxlMXtmaWxsOiMzMzM7fSNnZU1lcm1haWRPdXRwdXQtMTcxMjAwMjgzOTQ5MSAuc2VjdGlvblRpdGxlMntmaWxsOiMzMzM7fSNnZU1lcm1haWRPdXRwdXQtMTcxMjAwMjgzOTQ5MSAuc2VjdGlvblRpdGxlM3tmaWxsOiMzMzM7fSNnZU1lcm1haWRPdXRwdXQtMTcxMjAwMjgzOTQ5MSAuc2VjdGlvblRpdGxle3RleHQtYW5jaG9yOnN0YXJ0O2ZvbnQtZmFtaWx5Oid0cmVidWNoZXQgbXMnLHZlcmRhbmEsYXJpYWwsc2Fucy1zZXJpZjtmb250LWZhbWlseTp2YXIoLS1tZXJtYWlkLWZvbnQtZmFtaWx5KTt9I2dlTWVybWFpZE91dHB1dC0xNzEyMDAyODM5NDkxIC5ncmlkIC50aWNre3N0cm9rZTpoc2woMCwgMCUsIDkwJSk7b3BhY2l0eTowLjg7c2hhcGUtcmVuZGVyaW5nOmNyaXNwRWRnZXM7fSNnZU1lcm1haWRPdXRwdXQtMTcxMjAwMjgzOTQ5MSAuZ3JpZCAudGljayB0ZXh0e2ZvbnQtZmFtaWx5OiJ0cmVidWNoZXQgbXMiLHZlcmRhbmEsYXJpYWwsc2Fucy1zZXJpZjtmaWxsOiMwMDAwMDA7fSNnZU1lcm1haWRPdXRwdXQtMTcxMjAwMjgzOTQ5MSAuZ3JpZCBwYXRoe3N0cm9rZS13aWR0aDowO30jZ2VNZXJtYWlkT3V0cHV0LTE3MTIwMDI4Mzk0OTEgLnRvZGF5e2ZpbGw6bm9uZTtzdHJva2U6I2Q0MjtzdHJva2Utd2lkdGg6MnB4O30jZ2VNZXJtYWlkT3V0cHV0LTE3MTIwMDI4Mzk0OTEgLnRhc2t7c3Ryb2tlLXdpZHRoOjI7fSNnZU1lcm1haWRPdXRwdXQtMTcxMjAwMjgzOTQ5MSAudGFza1RleHR7dGV4dC1hbmNob3I6bWlkZGxlO2ZvbnQtZmFtaWx5Oid0cmVidWNoZXQgbXMnLHZlcmRhbmEsYXJpYWwsc2Fucy1zZXJpZjtmb250LWZhbWlseTp2YXIoLS1tZXJtYWlkLWZvbnQtZmFtaWx5KTt9I2dlTWVybWFpZE91dHB1dC0xNzEyMDAyODM5NDkxIC50YXNrVGV4dE91dHNpZGVSaWdodHtmaWxsOiMzMzM7dGV4dC1hbmNob3I6c3RhcnQ7Zm9udC1mYW1pbHk6J3RyZWJ1Y2hldCBtcycsdmVyZGFuYSxhcmlhbCxzYW5zLXNlcmlmO2ZvbnQtZmFtaWx5OnZhcigtLW1lcm1haWQtZm9udC1mYW1pbHkpO30jZ2VNZXJtYWlkT3V0cHV0LTE3MTIwMDI4Mzk0OTEgLnRhc2tUZXh0T3V0c2lkZUxlZnR7ZmlsbDojMzMzO3RleHQtYW5jaG9yOmVuZDt9I2dlTWVybWFpZE91dHB1dC0xNzEyMDAyODM5NDkxIC50YXNrLmNsaWNrYWJsZXtjdXJzb3I6cG9pbnRlcjt9I2dlTWVybWFpZE91dHB1dC0xNzEyMDAyODM5NDkxIC50YXNrVGV4dC5jbGlja2FibGV7Y3Vyc29yOnBvaW50ZXI7ZmlsbDojMDAzMTYzIWltcG9ydGFudDtmb250LXdlaWdodDpib2xkO30jZ2VNZXJtYWlkT3V0cHV0LTE3MTIwMDI4Mzk0OTEgLnRhc2tUZXh0T3V0c2lkZUxlZnQuY2xpY2thYmxle2N1cnNvcjpwb2ludGVyO2ZpbGw6IzAwMzE2MyFpbXBvcnRhbnQ7Zm9udC13ZWlnaHQ6Ym9sZDt9I2dlTWVybWFpZE91dHB1dC0xNzEyMDAyODM5NDkxIC50YXNrVGV4dE91dHNpZGVSaWdodC5jbGlja2FibGV7Y3Vyc29yOnBvaW50ZXI7ZmlsbDojMDAzMTYzIWltcG9ydGFudDtmb250LXdlaWdodDpib2xkO30jZ2VNZXJtYWlkT3V0cHV0LTE3MTIwMDI4Mzk0OTEgLnRhc2tUZXh0MCwjZ2VNZXJtYWlkT3V0cHV0LTE3MTIwMDI4Mzk0OTEgLnRhc2tUZXh0MSwjZ2VNZXJtYWlkT3V0cHV0LTE3MTIwMDI4Mzk0OTEgLnRhc2tUZXh0MiwjZ2VNZXJtYWlkT3V0cHV0LTE3MTIwMDI4Mzk0OTEgLnRhc2tUZXh0M3tmaWxsOndoaXRlO30jZ2VNZXJtYWlkT3V0cHV0LTE3MTIwMDI4Mzk0OTEgLnRhc2swLCNnZU1lcm1haWRPdXRwdXQtMTcxMjAwMjgzOTQ5MSAudGFzazEsI2dlTWVybWFpZE91dHB1dC0xNzEyMDAyODM5NDkxIC50YXNrMiwjZ2VNZXJtYWlkT3V0cHV0LTE3MTIwMDI4Mzk0OTEgLnRhc2sze2ZpbGw6IzcwNzA3MDtzdHJva2U6aHNsKDAsIDAlLCAzMy45MjE1Njg2Mjc1JSk7fSNnZU1lcm1haWRPdXRwdXQtMTcxMjAwMjgzOTQ5MSAudGFza1RleHRPdXRzaWRlMCwjZ2VNZXJtYWlkT3V0cHV0LTE3MTIwMDI4Mzk0OTEgLnRhc2tUZXh0T3V0c2lkZTJ7ZmlsbDojMzMzO30jZ2VNZXJtYWlkT3V0cHV0LTE3MTIwMDI4Mzk0OTEgLnRhc2tUZXh0T3V0c2lkZTEsI2dlTWVybWFpZE91dHB1dC0xNzEyMDAyODM5NDkxIC50YXNrVGV4dE91dHNpZGUze2ZpbGw6IzMzMzt9I2dlTWVybWFpZE91dHB1dC0xNzEyMDAyODM5NDkxIC5hY3RpdmUwLCNnZU1lcm1haWRPdXRwdXQtMTcxMjAwMjgzOTQ5MSAuYWN0aXZlMSwjZ2VNZXJtYWlkT3V0cHV0LTE3MTIwMDI4Mzk0OTEgLmFjdGl2ZTIsI2dlTWVybWFpZE91dHB1dC0xNzEyMDAyODM5NDkxIC5hY3RpdmUze2ZpbGw6I2VlZTtzdHJva2U6aHNsKDAsIDAlLCAzMy45MjE1Njg2Mjc1JSk7fSNnZU1lcm1haWRPdXRwdXQtMTcxMjAwMjgzOTQ5MSAuYWN0aXZlVGV4dDAsI2dlTWVybWFpZE91dHB1dC0xNzEyMDAyODM5NDkxIC5hY3RpdmVUZXh0MSwjZ2VNZXJtYWlkT3V0cHV0LTE3MTIwMDI4Mzk0OTEgLmFjdGl2ZVRleHQyLCNnZU1lcm1haWRPdXRwdXQtMTcxMjAwMjgzOTQ5MSAuYWN0aXZlVGV4dDN7ZmlsbDojMzMzIWltcG9ydGFudDt9I2dlTWVybWFpZE91dHB1dC0xNzEyMDAyODM5NDkxIC5kb25lMCwjZ2VNZXJtYWlkT3V0cHV0LTE3MTIwMDI4Mzk0OTEgLmRvbmUxLCNnZU1lcm1haWRPdXRwdXQtMTcxMjAwMjgzOTQ5MSAuZG9uZTIsI2dlTWVybWFpZE91dHB1dC0xNzEyMDAyODM5NDkxIC5kb25lM3tzdHJva2U6IzY2NjtmaWxsOiNiYmI7c3Ryb2tlLXdpZHRoOjI7fSNnZU1lcm1haWRPdXRwdXQtMTcxMjAwMjgzOTQ5MSAuZG9uZVRleHQwLCNnZU1lcm1haWRPdXRwdXQtMTcxMjAwMjgzOTQ5MSAuZG9uZVRleHQxLCNnZU1lcm1haWRPdXRwdXQtMTcxMjAwMjgzOTQ5MSAuZG9uZVRleHQyLCNnZU1lcm1haWRPdXRwdXQtMTcxMjAwMjgzOTQ5MSAuZG9uZVRleHQze2ZpbGw6IzMzMyFpbXBvcnRhbnQ7fSNnZU1lcm1haWRPdXRwdXQtMTcxMjAwMjgzOTQ5MSAuY3JpdDAsI2dlTWVybWFpZE91dHB1dC0xNzEyMDAyODM5NDkxIC5jcml0MSwjZ2VNZXJtYWlkT3V0cHV0LTE3MTIwMDI4Mzk0OTEgLmNyaXQyLCNnZU1lcm1haWRPdXRwdXQtMTcxMjAwMjgzOTQ5MSAuY3JpdDN7c3Ryb2tlOmhzbCgxMC45MDkwOTA5MDkxLCA3My4zMzMzMzMzMzMzJSwgNDAlKTtmaWxsOiNkNDI7c3Ryb2tlLXdpZHRoOjI7fSNnZU1lcm1haWRPdXRwdXQtMTcxMjAwMjgzOTQ5MSAuYWN0aXZlQ3JpdDAsI2dlTWVybWFpZE91dHB1dC0xNzEyMDAyODM5NDkxIC5hY3RpdmVDcml0MSwjZ2VNZXJtYWlkT3V0cHV0LTE3MTIwMDI4Mzk0OTEgLmFjdGl2ZUNyaXQyLCNnZU1lcm1haWRPdXRwdXQtMTcxMjAwMjgzOTQ5MSAuYWN0aXZlQ3JpdDN7c3Ryb2tlOmhzbCgxMC45MDkwOTA5MDkxLCA3My4zMzMzMzMzMzMzJSwgNDAlKTtmaWxsOiNlZWU7c3Ryb2tlLXdpZHRoOjI7fSNnZU1lcm1haWRPdXRwdXQtMTcxMjAwMjgzOTQ5MSAuZG9uZUNyaXQwLCNnZU1lcm1haWRPdXRwdXQtMTcxMjAwMjgzOTQ5MSAuZG9uZUNyaXQxLCNnZU1lcm1haWRPdXRwdXQtMTcxMjAwMjgzOTQ5MSAuZG9uZUNyaXQyLCNnZU1lcm1haWRPdXRwdXQtMTcxMjAwMjgzOTQ5MSAuZG9uZUNyaXQze3N0cm9rZTpoc2woMTAuOTA5MDkwOTA5MSwgNzMuMzMzMzMzMzMzMyUsIDQwJSk7ZmlsbDojYmJiO3N0cm9rZS13aWR0aDoyO2N1cnNvcjpwb2ludGVyO3NoYXBlLXJlbmRlcmluZzpjcmlzcEVkZ2VzO30jZ2VNZXJtYWlkT3V0cHV0LTE3MTIwMDI4Mzk0OTEgLm1pbGVzdG9uZXt0cmFuc2Zvcm06cm90YXRlKDQ1ZGVnKSBzY2FsZSgwLjgsMC44KTt9I2dlTWVybWFpZE91dHB1dC0xNzEyMDAyODM5NDkxIC5taWxlc3RvbmVUZXh0e2ZvbnQtc3R5bGU6aXRhbGljO30jZ2VNZXJtYWlkT3V0cHV0LTE3MTIwMDI4Mzk0OTEgLmRvbmVDcml0VGV4dDAsI2dlTWVybWFpZE91dHB1dC0xNzEyMDAyODM5NDkxIC5kb25lQ3JpdFRleHQxLCNnZU1lcm1haWRPdXRwdXQtMTcxMjAwMjgzOTQ5MSAuZG9uZUNyaXRUZXh0MiwjZ2VNZXJtYWlkT3V0cHV0LTE3MTIwMDI4Mzk0OTEgLmRvbmVDcml0VGV4dDN7ZmlsbDojMzMzIWltcG9ydGFudDt9I2dlTWVybWFpZE91dHB1dC0xNzEyMDAyODM5NDkxIC5hY3RpdmVDcml0VGV4dDAsI2dlTWVybWFpZE91dHB1dC0xNzEyMDAyODM5NDkxIC5hY3RpdmVDcml0VGV4dDEsI2dlTWVybWFpZE91dHB1dC0xNzEyMDAyODM5NDkxIC5hY3RpdmVDcml0VGV4dDIsI2dlTWVybWFpZE91dHB1dC0xNzEyMDAyODM5NDkxIC5hY3RpdmVDcml0VGV4dDN7ZmlsbDojMzMzIWltcG9ydGFudDt9I2dlTWVybWFpZE91dHB1dC0xNzEyMDAyODM5NDkxIC50aXRsZVRleHR7dGV4dC1hbmNob3I6bWlkZGxlO2ZvbnQtc2l6ZToxOHB4O2ZpbGw6IzAwMDAwMDtmb250LWZhbWlseTondHJlYnVjaGV0IG1zJyx2ZXJkYW5hLGFyaWFsLHNhbnMtc2VyaWY7Zm9udC1mYW1pbHk6dmFyKC0tbWVybWFpZC1mb250LWZhbWlseSk7fSNnZU1lcm1haWRPdXRwdXQtMTcxMjAwMjgzOTQ5MSA6cm9vdHstLW1lcm1haWQtZm9udC1mYW1pbHk6InRyZWJ1Y2hldCBtcyIsdmVyZGFuYSxhcmlhbCxzYW5zLXNlcmlmO308L3N0eWxlPjxnPjwvZz48Zz48L2c+PGcgdGV4dC1hbmNob3I9Im1pZGRsZSIgZm9udC1mYW1pbHk9InNhbnMtc2VyaWYiIGZvbnQtc2l6ZT0iMTAiIGZpbGw9Im5vbmUiIHRyYW5zZm9ybT0idHJhbnNsYXRlKDc1LCAxNDYpIiBjbGFzcz0iZ3JpZCI+PHBhdGggZD0iTTAuNSwtMTExVjAuNUgxMjE2LjVWLTExMSIgc3Ryb2tlPSJjdXJyZW50Q29sb3IiIGNsYXNzPSJkb21haW4iPjwvcGF0aD48ZyB0cmFuc2Zvcm09InRyYW5zbGF0ZSgxNS41LDApIiBvcGFjaXR5PSIxIiBjbGFzcz0idGljayI+PGxpbmUgeTI9Ii0xMTEiIHN0cm9rZT0iY3VycmVudENvbG9yIj48L2xpbmU+PHRleHQgc3R5bGU9InRleHQtYW5jaG9yOiBtaWRkbGU7IiBmb250LXNpemU9IjEwIiBzdHJva2U9Im5vbmUiIGR5PSIxZW0iIHk9IjMiIGZpbGw9IiMwMDAiPjIwMjItMDEtMDE8L3RleHQ+PC9nPjxnIHRyYW5zZm9ybT0idHJhbnNsYXRlKDE1OC41LDApIiBvcGFjaXR5PSIxIiBjbGFzcz0idGljayI+PGxpbmUgeTI9Ii0xMTEiIHN0cm9rZT0iY3VycmVudENvbG9yIj48L2xpbmU+PHRleHQgc3R5bGU9InRleHQtYW5jaG9yOiBtaWRkbGU7IiBmb250LXNpemU9IjEwIiBzdHJva2U9Im5vbmUiIGR5PSIxZW0iIHk9IjMiIGZpbGw9IiMwMDAiPjIwMjItMDEtMDM8L3RleHQ+PC9nPjxnIHRyYW5zZm9ybT0idHJhbnNsYXRlKDMwMS41LDApIiBvcGFjaXR5PSIxIiBjbGFzcz0idGljayI+PGxpbmUgeTI9Ii0xMTEiIHN0cm9rZT0iY3VycmVudENvbG9yIj48L2xpbmU+PHRleHQgc3R5bGU9InRleHQtYW5jaG9yOiBtaWRkbGU7IiBmb250LXNpemU9IjEwIiBzdHJva2U9Im5vbmUiIGR5PSIxZW0iIHk9IjMiIGZpbGw9IiMwMDAiPjIwMjItMDEtMDU8L3RleHQ+PC9nPjxnIHRyYW5zZm9ybT0idHJhbnNsYXRlKDQ0NC41LDApIiBvcGFjaXR5PSIxIiBjbGFzcz0idGljayI+PGxpbmUgeTI9Ii0xMTEiIHN0cm9rZT0iY3VycmVudENvbG9yIj48L2xpbmU+PHRleHQgc3R5bGU9InRleHQtYW5jaG9yOiBtaWRkbGU7IiBmb250LXNpemU9IjEwIiBzdHJva2U9Im5vbmUiIGR5PSIxZW0iIHk9IjMiIGZpbGw9IiMwMDAiPjIwMjItMDEtMDc8L3RleHQ+PC9nPjxnIHRyYW5zZm9ybT0idHJhbnNsYXRlKDU4Ny41LDApIiBvcGFjaXR5PSIxIiBjbGFzcz0idGljayI+PGxpbmUgeTI9Ii0xMTEiIHN0cm9rZT0iY3VycmVudENvbG9yIj48L2xpbmU+PHRleHQgc3R5bGU9InRleHQtYW5jaG9yOiBtaWRkbGU7IiBmb250LXNpemU9IjEwIiBzdHJva2U9Im5vbmUiIGR5PSIxZW0iIHk9IjMiIGZpbGw9IiMwMDAiPjIwMjItMDEtMDk8L3RleHQ+PC9nPjxnIHRyYW5zZm9ybT0idHJhbnNsYXRlKDczMC41LDApIiBvcGFjaXR5PSIxIiBjbGFzcz0idGljayI+PGxpbmUgeTI9Ii0xMTEiIHN0cm9rZT0iY3VycmVudENvbG9yIj48L2xpbmU+PHRleHQgc3R5bGU9InRleHQtYW5jaG9yOiBtaWRkbGU7IiBmb250LXNpemU9IjEwIiBzdHJva2U9Im5vbmUiIGR5PSIxZW0iIHk9IjMiIGZpbGw9IiMwMDAiPjIwMjItMDEtMTE8L3RleHQ+PC9nPjxnIHRyYW5zZm9ybT0idHJhbnNsYXRlKDg3My41LDApIiBvcGFjaXR5PSIxIiBjbGFzcz0idGljayI+PGxpbmUgeTI9Ii0xMTEiIHN0cm9rZT0iY3VycmVudENvbG9yIj48L2xpbmU+PHRleHQgc3R5bGU9InRleHQtYW5jaG9yOiBtaWRkbGU7IiBmb250LXNpemU9IjEwIiBzdHJva2U9Im5vbmUiIGR5PSIxZW0iIHk9IjMiIGZpbGw9IiMwMDAiPjIwMjItMDEtMTM8L3RleHQ+PC9nPjxnIHRyYW5zZm9ybT0idHJhbnNsYXRlKDEwMTYuNSwwKSIgb3BhY2l0eT0iMSIgY2xhc3M9InRpY2siPjxsaW5lIHkyPSItMTExIiBzdHJva2U9ImN1cnJlbnRDb2xvciI+PC9saW5lPjx0ZXh0IHN0eWxlPSJ0ZXh0LWFuY2hvcjogbWlkZGxlOyIgZm9udC1zaXplPSIxMCIgc3Ryb2tlPSJub25lIiBkeT0iMWVtIiB5PSIzIiBmaWxsPSIjMDAwIj4yMDIyLTAxLTE1PC90ZXh0PjwvZz48ZyB0cmFuc2Zvcm09InRyYW5zbGF0ZSgxMTU5LjUsMCkiIG9wYWNpdHk9IjEiIGNsYXNzPSJ0aWNrIj48bGluZSB5Mj0iLTExMSIgc3Ryb2tlPSJjdXJyZW50Q29sb3IiPjwvbGluZT48dGV4dCBzdHlsZT0idGV4dC1hbmNob3I6IG1pZGRsZTsiIGZvbnQtc2l6ZT0iMTAiIHN0cm9rZT0ibm9uZSIgZHk9IjFlbSIgeT0iMyIgZmlsbD0iIzAwMCI+MjAyMi0wMS0xNzwvdGV4dD48L2c+PC9nPjxnPjxyZWN0IGNsYXNzPSJzZWN0aW9uIHNlY3Rpb24wIiBoZWlnaHQ9IjI0IiB3aWR0aD0iMTMyOC41IiB5PSI0OCIgeD0iMCI+PC9yZWN0PjxyZWN0IGNsYXNzPSJzZWN0aW9uIHNlY3Rpb24xIiBoZWlnaHQ9IjI0IiB3aWR0aD0iMTMyOC41IiB5PSI3MiIgeD0iMCI+PC9yZWN0PjxyZWN0IGNsYXNzPSJzZWN0aW9uIHNlY3Rpb24xIiBoZWlnaHQ9IjI0IiB3aWR0aD0iMTMyOC41IiB5PSI5NiIgeD0iMCI+PC9yZWN0PjxyZWN0IGNsYXNzPSJzZWN0aW9uIHNlY3Rpb24yIiBoZWlnaHQ9IjI0IiB3aWR0aD0iMTMyOC41IiB5PSIxMjAiIHg9IjAiPjwvcmVjdD48L2c+PGc+PHJlY3QgY2xhc3M9InRhc2sgdGFzazAiIHRyYW5zZm9ybS1vcmlnaW49IjMyNS41cHggNjBweCIgaGVpZ2h0PSIyMCIgd2lkdGg9IjUwMSIgeT0iNTAiIHg9Ijc1IiByeT0iMyIgcng9IjMiIGlkPSJ0YXNrMSI+PC9yZWN0PjxyZWN0IGNsYXNzPSJ0YXNrIHRhc2sxIiB0cmFuc2Zvcm0tb3JpZ2luPSI3NTQuNXB4IDg0cHgiIGhlaWdodD0iMjAiIHdpZHRoPSIzNTciIHk9Ijc0IiB4PSI1NzYiIHJ5PSIzIiByeD0iMyIgaWQ9InRhc2syIj48L3JlY3Q+PHJlY3QgY2xhc3M9InRhc2sgdGFzazEiIHRyYW5zZm9ybS1vcmlnaW49IjEwNDAuNXB4IDEwOHB4IiBoZWlnaHQ9IjIwIiB3aWR0aD0iMjE1IiB5PSI5OCIgeD0iOTMzIiByeT0iMyIgcng9IjMiIGlkPSJ0YXNrMyI+PC9yZWN0PjxyZWN0IGNsYXNzPSJ0YXNrIHRhc2syIiB0cmFuc2Zvcm0tb3JpZ2luPSIxMjE5LjVweCAxMzJweCIgaGVpZ2h0PSIyMCIgd2lkdGg9IjE0MyIgeT0iMTIyIiB4PSIxMTQ4IiByeT0iMyIgcng9IjMiIGlkPSJ0YXNrNCI+PC9yZWN0Pjx0ZXh0IGNsYXNzPSJ0YXNrVGV4dCB0YXNrVGV4dDAgIHdpZHRoLTgzLjY2MDY0NDUzMTI1IiB5PSI2My41IiB4PSIzMjUuNSIgZm9udC1zaXplPSIxMSIgaWQ9InRhc2sxLXRleHQiPlJldmlzacOzbiBkZWwgY2FzbzwvdGV4dD48dGV4dCBjbGFzcz0idGFza1RleHQgdGFza1RleHQxICB3aWR0aC01NC42NTU3NjE3MTg3NSIgeT0iODcuNSIgeD0iNzU0LjUiIGZvbnQtc2l6ZT0iMTEiIGlkPSJ0YXNrMi10ZXh0Ij5FbnRyZXZpc3RhczwvdGV4dD48dGV4dCBjbGFzcz0idGFza1RleHQgdGFza1RleHQxICB3aWR0aC0xMjguMDkwMzMyMDMxMjUiIHk9IjExMS41IiB4PSIxMDQwLjUiIGZvbnQtc2l6ZT0iMTEiIGlkPSJ0YXNrMy10ZXh0Ij5SZWNvcGlsYWNpw7NuIGRlIGV2aWRlbmNpYTwvdGV4dD48dGV4dCBjbGFzcz0idGFza1RleHQgdGFza1RleHQyICB3aWR0aC03OC44OTQ1MzEyNSIgeT0iMTM1LjUiIHg9IjEyMTkuNSIgZm9udC1zaXplPSIxMSIgaWQ9InRhc2s0LXRleHQiPkV2YWx1YWNpw7NuIGZpbmFsPC90ZXh0PjwvZz48Zz48dGV4dCBjbGFzcz0ic2VjdGlvblRpdGxlIHNlY3Rpb25UaXRsZTAiIGZvbnQtc2l6ZT0iMTEiIHk9IjYyIiB4PSIxMCIgZHk9IjBlbSI+PHRzcGFuIHg9IjEwIiBhbGlnbm1lbnQtYmFzZWxpbmU9ImNlbnRyYWwiPkluaWNpbzwvdHNwYW4+PC90ZXh0Pjx0ZXh0IGNsYXNzPSJzZWN0aW9uVGl0bGUgc2VjdGlvblRpdGxlMSIgZm9udC1zaXplPSIxMSIgeT0iOTgiIHg9IjEwIiBkeT0iMGVtIj48dHNwYW4geD0iMTAiIGFsaWdubWVudC1iYXNlbGluZT0iY2VudHJhbCI+SW52ZXN0aWdhY2nDs248L3RzcGFuPjwvdGV4dD48dGV4dCBjbGFzcz0ic2VjdGlvblRpdGxlIHNlY3Rpb25UaXRsZTIiIGZvbnQtc2l6ZT0iMTEiIHk9IjEzNCIgeD0iMTAiIGR5PSIwZW0iPjx0c3BhbiB4PSIxMCIgYWxpZ25tZW50LWJhc2VsaW5lPSJjZW50cmFsIj5SZXNvbHVjacOzbjwvdHNwYW4+PC90ZXh0PjwvZz48ZyBjbGFzcz0idG9kYXkiPjxsaW5lIGNsYXNzPSJ0b2RheSIgeTI9IjE3MSIgeTE9IjI1IiB4Mj0iNTg4NjEiIHgxPSI1ODg2MSI+PC9saW5lPjwvZz48dGV4dCBjbGFzcz0idGl0bGVUZXh0IiB5PSIyNSIgeD0iNjgzIj5EaWFncmFtYSBkZSBQcm9jZXNvIERpc2NpcGxpbmFyaW88L3RleHQ+PC9zdmc+;" vertex="1" parent="1">
            <mxGeometry width="1366" height="196" as="geometry" />
          </mxCell>
        </UserObject>
      </root>
    </mxGraphModel>
  </diagram>
</mxfile>
